<?xml version="1.0" encoding="UTF-8" standalone="no"?>
<!-- Created with Inkscape (http://www.inkscape.org/) -->

<svg
   width="5000"
   height="5000"
   viewBox="0 0 5000 4999.9999"
   id="svg2"
   version="1.1"
   inkscape:version="1.2.1 (9c6d41e, 2022-07-14)"
   sodipodi:docname="circle-gcp.svg"
   inkscape:export-filename="/home/felicianotech/Projects/cloud-unpacked/graphics/logos/master/master.png"
   inkscape:export-xdpi="11.9"
   inkscape:export-ydpi="11.9"
   xml:space="preserve"
   xmlns:inkscape="http://www.inkscape.org/namespaces/inkscape"
   xmlns:sodipodi="http://sodipodi.sourceforge.net/DTD/sodipodi-0.dtd"
   xmlns:xlink="http://www.w3.org/1999/xlink"
   xmlns="http://www.w3.org/2000/svg"
   xmlns:svg="http://www.w3.org/2000/svg"
   xmlns:rdf="http://www.w3.org/1999/02/22-rdf-syntax-ns#"
   xmlns:cc="http://creativecommons.org/ns#"
   xmlns:dc="http://purl.org/dc/elements/1.1/"><defs
     id="defs4"><path
       d="M34,15.167c0,0-7.333,5.833-9.333,6C22.667,21.333,14,27,14,27l-5.667-0.166L2,19.667l8.667,64.752h100.581    l-70.51-70.51L34,15.167z"
       id="SVGID_1_" /><filter
       height="70.51"
       width="109.248"
       y="13.909"
       x="2"
       filterUnits="userSpaceOnUse"
       id="Adobe_OpacityMaskFilter"><feColorMatrix
         id="feColorMatrix1326"
         values="1 0 0 0 0  0 1 0 0 0  0 0 1 0 0  0 0 0 1 0"
         type="matrix" /></filter><path
       d="M18.692,15.471h3.947v-3.866h-3.947V15.471z M4.164,15.47h3.947v-3.866H4.164V15.47z M8.111,11.604h0.002    H8.111z M9.008,15.47h3.947v-3.866H9.008V15.47z M13.851,15.47h3.946v-3.866h-3.946V15.47z M23.535,15.47h3.946v-3.866h-3.946    V15.47z M7.588,22.131c0-1.129,0.936-2.046,2.087-2.046c1.151,0,2.089,0.917,2.089,2.046c0,1.127-0.937,2.046-2.089,2.046    C8.526,24.177,7.588,23.258,7.588,22.131 M32.206,9.347c-0.835,0.948-1.084,2.522-0.97,3.731c0.084,0.89,0.369,1.791,0.928,2.506    c-0.425,0.25-0.908,0.447-1.338,0.591c-0.874,0.289-1.825,0.45-2.75,0.45H2.111l-0.056,0.589c-0.184,1.955,0.089,3.911,0.915,5.7    l0.354,0.711l0.041,0.066c2.443,4.063,6.729,5.774,11.402,5.774c9.046,0,16.507-3.957,19.933-12.318    c2.289,0.115,4.631-0.547,5.752-2.689l0.286-0.549l-0.542-0.305c-1.327-0.749-3.091-0.853-4.594-0.418v0.001    c-0.186-1.567-1.235-2.939-2.484-3.922l-0.495-0.389L32.206,9.347z M9.008,10.512h3.947V6.645H9.008V10.512z M13.851,10.512h3.946    V6.645h-3.946V10.512z M18.692,10.512h3.947V6.645h-3.947V10.512z M18.692,5.554h3.947V1.687h-3.947V5.554z"
       id="SVGID_6_" /><clipPath
       id="SVGID_7_-5"><use
         height="100%"
         width="100%"
         y="0"
         x="0"
         style="overflow:visible"
         xlink:href="#SVGID_6_"
         overflow="visible"
         id="use1353-7" /></clipPath><path
       inkscape:connector-curvature="0"
       id="path1392-7"
       d="m 18.692,15.471 h 3.947 V 11.605 H 18.692 Z M 4.164,15.47 H 8.111 V 11.604 H 4.164 Z m 3.947,-3.866 h 0.002 z m 0.897,3.866 h 3.947 V 11.604 H 9.008 Z m 4.843,0 h 3.946 v -3.866 h -3.946 z m 9.684,0 h 3.946 V 11.604 H 23.535 Z M 7.588,22.131 c 0,-1.129 0.936,-2.046 2.087,-2.046 1.151,0 2.089,0.917 2.089,2.046 0,1.127 -0.937,2.046 -2.089,2.046 -1.149,0 -2.087,-0.919 -2.087,-2.046 M 32.206,9.347 c -0.835,0.948 -1.084,2.522 -0.97,3.731 0.084,0.89 0.369,1.791 0.928,2.506 -0.425,0.25 -0.908,0.447 -1.338,0.591 -0.874,0.289 -1.825,0.45 -2.75,0.45 H 2.111 l -0.056,0.589 c -0.184,1.955 0.089,3.911 0.915,5.7 l 0.354,0.711 0.041,0.066 c 2.443,4.063 6.729,5.774 11.402,5.774 9.046,0 16.507,-3.957 19.933,-12.318 2.289,0.115 4.631,-0.547 5.752,-2.689 l 0.286,-0.549 -0.542,-0.305 c -1.327,-0.749 -3.091,-0.853 -4.594,-0.418 v 10e-4 C 35.416,11.62 34.367,10.248 33.118,9.265 L 32.623,8.876 Z M 9.008,10.512 h 3.947 V 6.645 H 9.008 Z m 4.843,0 h 3.946 V 6.645 h -3.946 z m 4.841,0 h 3.947 V 6.645 h -3.947 z m 0,-4.958 h 3.947 V 1.687 h -3.947 z" /><linearGradient
       id="e399c19f-b68f-429d-b176-18c2117ff73c"
       x1="-1032.172"
       x2="-1059.213"
       y1="145.312"
       y2="65.426"
       gradientTransform="matrix(1,0,0,-1,1075,158)"
       gradientUnits="userSpaceOnUse"><stop
         offset="0"
         stop-color="#114a8b"
         id="stop1407" /><stop
         offset="1"
         stop-color="#0669bc"
         id="stop1409" /></linearGradient><linearGradient
       id="ac2a6fc2-ca48-4327-9a3c-d4dcc3256e15"
       x1="-1023.725"
       x2="-1029.98"
       y1="108.083"
       y2="105.968"
       gradientTransform="matrix(1,0,0,-1,1075,158)"
       gradientUnits="userSpaceOnUse"><stop
         offset="0"
         stop-opacity=".3"
         id="stop1412" /><stop
         offset=".071"
         stop-opacity=".2"
         id="stop1414" /><stop
         offset=".321"
         stop-opacity=".1"
         id="stop1416" /><stop
         offset=".623"
         stop-opacity=".05"
         id="stop1418" /><stop
         offset="1"
         stop-opacity="0"
         id="stop1420" /></linearGradient><linearGradient
       id="a7fee970-a784-4bb1-af8d-63d18e5f7db9"
       x1="-1027.165"
       x2="-997.482"
       y1="147.642"
       y2="68.561"
       gradientTransform="matrix(1,0,0,-1,1075,158)"
       gradientUnits="userSpaceOnUse"><stop
         offset="0"
         stop-color="#3ccbf4"
         id="stop1423" /><stop
         offset="1"
         stop-color="#2892df"
         id="stop1425" /></linearGradient></defs><sodipodi:namedview
     id="base"
     pagecolor="#000000"
     bordercolor="#666666"
     borderopacity="1.0"
     inkscape:pageopacity="0"
     inkscape:pageshadow="2"
     inkscape:zoom="0.088388348"
     inkscape:cx="1668.772"
     inkscape:cy="3133.8972"
     inkscape:document-units="px"
     inkscape:current-layer="layer1"
     showgrid="false"
     inkscape:window-width="1512"
     inkscape:window-height="916"
     inkscape:window-x="0"
     inkscape:window-y="38"
     inkscape:window-maximized="0"
     fit-margin-top="0"
     fit-margin-left="0"
     fit-margin-right="0"
     fit-margin-bottom="0"
     showborder="true"
     units="px"
     inkscape:pagecheckerboard="true"
     inkscape:showpageshadow="2"
     inkscape:deskcolor="#000000" /><metadata
     id="metadata7"><rdf:RDF><cc:Work
         rdf:about=""><dc:format>image/svg+xml</dc:format><dc:type
           rdf:resource="http://purl.org/dc/dcmitype/StillImage" /></cc:Work></rdf:RDF></metadata><g
     inkscape:label="Layer 1"
     inkscape:groupmode="layer"
     id="layer1"
     transform="translate(2386.9101,-3798.7827)"><circle
       style="fill:#ffffff;fill-opacity:1"
       id="path864"
       cx="113.0899"
       cy="6298.7827"
       r="2500" /><circle
       style="fill:#000000;fill-opacity:1;stroke:none;stroke-width:2;stroke-linecap:square;stroke-linejoin:miter;stroke-miterlimit:4;stroke-dasharray:none;stroke-opacity:1"
       id="path4304-4-6"
       cx="2523.1167"
       cy="-317.93839"
       r="0" /><circle
       style="fill:#000000;fill-opacity:1;stroke:none;stroke-width:2;stroke-linecap:square;stroke-linejoin:miter;stroke-miterlimit:4;stroke-dasharray:none;stroke-opacity:1"
       id="path4304-4-2"
       cx="320.25952"
       cy="862.34735"
       r="0" /><circle
       style="fill:#000000;fill-opacity:1;stroke:none;stroke-width:2;stroke-linecap:square;stroke-linejoin:miter;stroke-miterlimit:4;stroke-dasharray:none;stroke-opacity:1"
       id="path4304-4-0"
       cx="2523.1167"
       cy="862.34735"
       r="0" /><circle
       style="fill:#000000;fill-opacity:1;stroke:none;stroke-width:2;stroke-linecap:square;stroke-linejoin:miter;stroke-miterlimit:4;stroke-dasharray:none;stroke-opacity:1"
       id="path4304-4-0-6"
       cx="1385.9738"
       cy="2456.3474"
       r="0" /><circle
       style="fill:#000000;fill-opacity:1;stroke:none;stroke-width:2;stroke-linecap:square;stroke-linejoin:miter;stroke-miterlimit:4;stroke-dasharray:none;stroke-opacity:1"
       id="path4304-4-9-6"
       cx="2458.947"
       cy="2162.2476"
       r="0" /><circle
       style="fill:#000000;fill-opacity:1;stroke:none;stroke-width:2;stroke-linecap:square;stroke-linejoin:miter;stroke-miterlimit:4;stroke-dasharray:none;stroke-opacity:1"
       id="path4304-4-9-0"
       cx="2475.4346"
       cy="-339.29968"
       r="0" /><g
       id="g1458"
       transform="matrix(30.152087,0,0,30.152087,-1334.2145,4851.4976)"><path
         fill="url(#e399c19f-b68f-429d-b176-18c2117ff73c)"
         d="m 33.338,6.544 h 26.038 l -27.03,80.087 a 4.152,4.152 0 0 1 -3.933,2.824 H 8.149 A 4.145,4.145 0 0 1 4.221,83.985 L 29.404,9.368 a 4.152,4.152 0 0 1 3.934,-2.825 z"
         id="path1430"
         style="fill:url(#e399c19f-b68f-429d-b176-18c2117ff73c)" /><path
         fill="#0078d4"
         d="M 71.175,60.261 H 29.885 A 1.911,1.911 0 0 0 28.58,63.57 l 26.532,24.764 a 4.171,4.171 0 0 0 2.846,1.121 h 23.38 z"
         id="path1432" /><path
         fill="url(#ac2a6fc2-ca48-4327-9a3c-d4dcc3256e15)"
         d="M 33.338,6.544 A 4.118,4.118 0 0 0 29.395,9.423 L 4.252,83.917 a 4.14,4.14 0 0 0 3.908,5.538 h 20.787 a 4.443,4.443 0 0 0 3.41,-2.9 l 5.014,-14.777 17.91,16.705 a 4.237,4.237 0 0 0 2.666,0.972 H 81.24 L 71.024,60.261 41.243,60.268 59.47,6.544 Z"
         id="path1434"
         style="fill:url(#ac2a6fc2-ca48-4327-9a3c-d4dcc3256e15)" /><path
         fill="url(#a7fee970-a784-4bb1-af8d-63d18e5f7db9)"
         d="M 66.595,9.364 A 4.145,4.145 0 0 0 62.667,6.544 H 33.648 a 4.146,4.146 0 0 1 3.928,2.82 l 25.184,74.62 a 4.146,4.146 0 0 1 -3.928,5.472 h 29.02 a 4.146,4.146 0 0 0 3.927,-5.472 z"
         id="path1436"
         style="fill:url(#a7fee970-a784-4bb1-af8d-63d18e5f7db9)" /></g></g><style
     id="style1118"
     type="text/css">
	.st0{fill:#2DBCAF;}
	.st1{fill:#5DC9E1;}
	.st2{fill:#FDDD00;}
	.st3{fill:#CE3262;}
	.st4{fill:#00ACD7;}
	.st5{fill:#FFFFFF;}
</style><style
     type="text/css"
     id="style195">
	.st0{fill:#252F3E;}
	.st1{fill-rule:evenodd;clip-rule:evenodd;fill:#FF9900;}
</style></svg>
